<svg xmlns="http://www.w3.org/2000/svg" width="1003" height="599">
 <!-- Created with Image Occlusion Enhanced -->
 <g>
  <title>Labels</title>
 </g>
 <g>
  <title>Masks</title>
  <rect id="00d3c16cb09243eea44886e6a88f79d0-oa-1" height="39.84962" width="146.61654" y="403.25566" x="57.90226" stroke="#2D2D2D" fill="#FFEBA2"/>
  <rect id="00d3c16cb09243eea44886e6a88f79d0-oa-2" height="46.61654" width="159.3985" y="404.00754" x="503.76693" stroke="#2D2D2D" fill="#FFEBA2"/>
  <rect id="00d3c16cb09243eea44886e6a88f79d0-oa-3" height="44.3609" width="184.96241" y="507.76694" x="461.66166" stroke="#2D2D2D" fill="#FFEBA2"/>
  <rect id="00d3c16cb09243eea44886e6a88f79d0-oa-4" height="24.81203" width="115.0376" y="490.47371" x="739.85716" stroke="#2D2D2D" fill="#FFEBA2"/>
  <rect id="00d3c16cb09243eea44886e6a88f79d0-oa-5" height="19.54887" width="204.51128" y="564.9098" x="693.9925" stroke="#2D2D2D" fill="#FFEBA2"/>
  <rect id="00d3c16cb09243eea44886e6a88f79d0-oa-6" height="36.84211" width="161.65414" y="364.15792" x="673.69174" stroke="#2D2D2D" fill="#FFEBA2"/>
  <rect id="00d3c16cb09243eea44886e6a88f79d0-oa-7" height="32.33083" width="98.49624" y="365.66167" x="293.24061" stroke="#2D2D2D" fill="#FFEBA2"/>
  <rect id="00d3c16cb09243eea44886e6a88f79d0-oa-8" height="38.34587" width="160.90226" y="447.61656" x="185.72181" stroke="#2D2D2D" fill="#FFEBA2"/>
  <rect id="00d3c16cb09243eea44886e6a88f79d0-oa-9" height="30.82707" width="169.17294" y="5.51129" x="65.42105" stroke="#2D2D2D" fill="#FFEBA2"/>
  <rect id="00d3c16cb09243eea44886e6a88f79d0-oa-10" height="33.08271" width="143.60903" y="4.00753" x="290.98497" stroke="#2D2D2D" fill="#FFEBA2"/>
  <rect id="00d3c16cb09243eea44886e6a88f79d0-oa-11" height="34.58647" width="156.39098" y="3.25565" x="493.24061" stroke="#2D2D2D" fill="#FFEBA2"/>
  <rect id="00d3c16cb09243eea44886e6a88f79d0-oa-12" height="30.07519" width="200" y="79.1955" x="581.21054" stroke="#2D2D2D" fill="#FFEBA2"/>
  <rect id="00d3c16cb09243eea44886e6a88f79d0-oa-13" height="54.13534" width="32.33083" y="120.54889" x="878.95491" stroke="#2D2D2D" fill="#FFEBA2"/>
  <rect id="00d3c16cb09243eea44886e6a88f79d0-oa-14" height="60.15038" width="35.33835" y="119.79701" x="940.60904" stroke="#2D2D2D" fill="#FFEBA2"/>
  <rect id="00d3c16cb09243eea44886e6a88f79d0-oa-15" height="90.22557" width="21.05263" y="195.73686" x="806.77445" stroke="#2D2D2D" fill="#FFEBA2"/>
  <rect id="00d3c16cb09243eea44886e6a88f79d0-oa-16" height="57.14286" width="39.09775" y="225.06017" x="719.55641" stroke="#2D2D2D" fill="#FFEBA2"/>
  <rect id="00d3c16cb09243eea44886e6a88f79d0-oa-17" height="56.39098" width="29.32331" y="191.97746" x="635.34588" stroke="#2D2D2D" fill="#FFEBA2"/>
  <rect id="00d3c16cb09243eea44886e6a88f79d0-oa-18" height="53.38346" width="31.57895" y="195.73686" x="548.87971" stroke="#2D2D2D" fill="#FFEBA2"/>
  <rect id="00d3c16cb09243eea44886e6a88f79d0-oa-19" height="32.33083" width="126.31579" y="77.69174" x="321.81204" stroke="#2D2D2D" fill="#FFEBA2"/>
  <rect id="00d3c16cb09243eea44886e6a88f79d0-oa-20" height="67.66917" width="25.56391" y="183.70678" x="319.5564" stroke="#2D2D2D" fill="#FFEBA2"/>
  <rect id="00d3c16cb09243eea44886e6a88f79d0-oa-21" height="67.66917" width="25.56391" y="216.03761" x="389.48121" stroke="#2D2D2D" fill="#FFEBA2"/>
  <rect id="00d3c16cb09243eea44886e6a88f79d0-oa-22" height="63.90978" width="18.79699" y="220.54889" x="448.12783" stroke="#2D2D2D" fill="#FFEBA2"/>
  <rect id="00d3c16cb09243eea44886e6a88f79d0-oa-23" height="95.48872" width="24.06015" y="117.54137" x="236.84963" stroke="#2D2D2D" fill="#FFEBA2"/>
  <rect id="00d3c16cb09243eea44886e6a88f79d0-oa-24" height="107.5188" width="26.31579" y="145.36092" x="167.6767" stroke="#2D2D2D" fill="#FFEBA2"/>
  <rect id="00d3c16cb09243eea44886e6a88f79d0-oa-25" height="63.90978" width="21.05263" y="155.88723" x="45.87218" stroke="#2D2D2D" fill="#FFEBA2"/>
  <rect id="00d3c16cb09243eea44886e6a88f79d0-oa-26" height="84.21053" width="16.54135" y="121.30077" x="100.00752" stroke="#2D2D2D" fill="#FFEBA2"/>
 </g>
</svg>