<svg xmlns="http://www.w3.org/2000/svg" width="753" height="388">
 <!-- Created with Image Occlusion Enhanced -->
 <g>
  <title>Labels</title>
 </g>
 <g>
  <title>Masks</title>
  <rect id="1c6feda5f5d547beae0c33e742710688-ao-1" height="24.27184" width="70.38835" y="86.75726" x="38.74755" stroke="#2D2D2D" fill="#FFEBA2"/>
  <rect id="1c6feda5f5d547beae0c33e742710688-ao-2" height="23.30097" width="48.05825" y="51.32037" x="96.51453" stroke="#2D2D2D" fill="#FFEBA2"/>
  <rect id="1c6feda5f5d547beae0c33e742710688-ao-3" height="22.3301" width="57.76699" y="16.36892" x="165.93201" stroke="#2D2D2D" fill="#FFEBA2"/>
  <rect id="1c6feda5f5d547beae0c33e742710688-ao-4" height="22.3301" width="65.53398" y="52.77668" x="198.94171" stroke="#2D2D2D" fill="#FFEBA2"/>
  <rect id="1c6feda5f5d547beae0c33e742710688-ao-5" height="24.75728" width="104.36893" y="14.42717" x="317.87375" stroke="#2D2D2D" fill="#FFEBA2"/>
  <rect id="1c6feda5f5d547beae0c33e742710688-ao-6" height="21.35922" width="91.74757" y="53.26212" x="330.49511" stroke="#2D2D2D" fill="#FFEBA2"/>
  <rect id="1c6feda5f5d547beae0c33e742710688-ao-7" height="22.3301" width="125.24271" y="14.91261" x="440.68928" stroke="#2D2D2D" fill="#FFEBA2"/>
  <rect id="1c6feda5f5d547beae0c33e742710688-ao-8" height="21.35922" width="61.65048" y="50.83494" x="495.54365" stroke="#2D2D2D" fill="#FFEBA2"/>
  <rect id="1c6feda5f5d547beae0c33e742710688-ao-9" height="20.38835" width="39.80582" y="15.88348" x="624.18442" stroke="#2D2D2D" fill="#FFEBA2"/>
  <rect id="1c6feda5f5d547beae0c33e742710688-ao-10" height="19.90291" width="51.45631" y="112.97086" x="641.17471" stroke="#2D2D2D" fill="#FFEBA2"/>
  <rect id="1c6feda5f5d547beae0c33e742710688-ao-11" height="19.90291" width="45.14563" y="296.46599" x="686.32034" stroke="#2D2D2D" fill="#FFEBA2"/>
  <rect id="1c6feda5f5d547beae0c33e742710688-ao-12" height="41.74757" width="169.90291" y="345.00968" x="568.84461" stroke="#2D2D2D" fill="#FFEBA2"/>
  <rect id="1c6feda5f5d547beae0c33e742710688-ao-13" height="23.78641" width="92.23301" y="295.00968" x="554.76695" stroke="#2D2D2D" fill="#FFEBA2"/>
  <rect id="1c6feda5f5d547beae0c33e742710688-ao-14" height="18.4466" width="88.34951" y="299.37862" x="440.68928" stroke="#2D2D2D" fill="#FFEBA2"/>
  <rect id="1c6feda5f5d547beae0c33e742710688-ao-15" height="21.35922" width="92.23301" y="345.00968" x="328.55336" stroke="#2D2D2D" fill="#FFEBA2"/>
  <rect id="1c6feda5f5d547beae0c33e742710688-ao-16" height="26.21359" width="112.13592" y="294.52425" x="213.01938" stroke="#2D2D2D" fill="#FFEBA2"/>
  <rect id="1c6feda5f5d547beae0c33e742710688-ao-17" height="20.87379" width="108.25242" y="349.86405" x="14.96114" stroke="#2D2D2D" fill="#FFEBA2"/>
  
 </g>
</svg>