<svg xmlns="http://www.w3.org/2000/svg" width="893" height="554">
 <!-- Created with Image Occlusion Enhanced -->
 <g>
  <title>Labels</title>
 </g>
 <g>
  <title>Masks</title>
  <rect id="2133a521cb9848079d86177eab446652-ao-1" height="20.89552" width="159.7015" y="168.38807" x="147.29851" stroke="#2D2D2D" fill="#FFEBA2"/>
  <rect id="2133a521cb9848079d86177eab446652-ao-2" height="22.38806" width="132.83582" y="217.64181" x="174.16418" stroke="#2D2D2D" fill="#FFEBA2"/>
  <rect id="2133a521cb9848079d86177eab446652-ao-3" height="20.89552" width="111.9403" y="275.85076" x="186.10448" stroke="#2D2D2D" fill="#FFEBA2"/>
  <rect id="2133a521cb9848079d86177eab446652-ao-4" height="31.34328" width="62.68657" y="166.89554" x="680.13434" stroke="#2D2D2D" fill="#FFEBA2"/>
  <rect id="2133a521cb9848079d86177eab446652-ao-5" height="32.83582" width="79.10448" y="46.00001" x="789.08956" stroke="#2D2D2D" fill="#FFEBA2"/>
  <rect id="2133a521cb9848079d86177eab446652-ao-6" height="20.89552" width="71.64179" y="257.94031" x="766.7015" stroke="#2D2D2D" fill="#FFEBA2"/>
  <rect id="2133a521cb9848079d86177eab446652-ao-7" height="20.89552" width="46.26866" y="292.26867" x="765.20897" stroke="#2D2D2D" fill="#FFEBA2"/>
  <rect id="2133a521cb9848079d86177eab446652-ao-8" height="41.79105" width="97.01493" y="343.01494" x="760.73135" stroke="#2D2D2D" fill="#FFEBA2"/>
  
  <rect id="2133a521cb9848079d86177eab446652-ao-10" height="22.38806" width="104.47761" y="501.2239" x="763.71643" stroke="#2D2D2D" fill="#FFEBA2"/>
  <rect id="2133a521cb9848079d86177eab446652-ao-11" height="41.79105" width="101.49254" y="383.31345" x="208.49254" stroke="#2D2D2D" fill="#FFEBA2"/>
  <rect id="2133a521cb9848079d86177eab446652-ao-12" height="20.89552" width="70.14926" y="332.56718" x="232.37314" stroke="#2D2D2D" fill="#FFEBA2"/>
  <rect id="2133a521cb9848079d86177eab446652-ao-13" height="44.77612" width="194.02985" y="75.85076" x="17.44776" stroke="#2D2D2D" fill="#FFEBA2"/>
  <rect id="2133a521cb9848079d86177eab446652-ao-14" height="71.64179" width="143.28358" y="362.41793" x="32.37313" stroke="#2D2D2D" fill="#FFEBA2"/>
  <rect id="2133a521cb9848079d86177eab446652-ao-15" height="47.76119" width="146.26866" y="466.89554" x="26.40298" stroke="#2D2D2D" fill="#FFEBA2"/>
  <rect id="2133a521cb9848079d86177eab446652-ao-16" height="56.71642" width="55.22388" y="493.76121" x="359.23881" stroke="#2D2D2D" fill="#FFEBA2"/>
 </g>
</svg>