<svg xmlns="http://www.w3.org/2000/svg" width="588" height="931">
 <!-- Created with Image Occlusion Enhanced -->
 <g>
  <title>Labels</title>
 </g>
 <g>
  <title>Masks</title>
  <rect id="31f2eb32d10146aca4a458fdc7e227d2-ao-1" height="26.74419" width="50" y="60.8605" x="32.37212" stroke="#2D2D2D" fill="#FFEBA2"/>
  <rect id="31f2eb32d10146aca4a458fdc7e227d2-ao-2" height="20.93023" width="59.30233" y="136.4419" x="34.6977" stroke="#2D2D2D" fill="#FFEBA2"/>
  <rect id="31f2eb32d10146aca4a458fdc7e227d2-ao-3" height="16.27907" width="59.30233" y="171.32562" x="35.86049" stroke="#2D2D2D" fill="#FFEBA2"/>
  <rect id="31f2eb32d10146aca4a458fdc7e227d2-ao-4" height="18.60465" width="40.69768" y="194.58143" x="37.02328" stroke="#2D2D2D" fill="#FFEBA2"/>
  <rect id="31f2eb32d10146aca4a458fdc7e227d2-ao-5" height="17.44186" width="47.67442" y="62.02329" x="223.0698" stroke="#2D2D2D" fill="#FFEBA2"/>
  <rect id="31f2eb32d10146aca4a458fdc7e227d2-ao-6" height="27.90698" width="61.62791" y="23.65119" x="160.2791" stroke="#2D2D2D" fill="#FFEBA2"/>
  <rect id="31f2eb32d10146aca4a458fdc7e227d2-ao-7" height="25.5814" width="82.55814" y="24.81399" x="283.53492" stroke="#2D2D2D" fill="#FFEBA2"/>
  <rect id="31f2eb32d10146aca4a458fdc7e227d2-ao-8" height="26.74419" width="83.72093" y="201.55818" x="402.13957" stroke="#2D2D2D" fill="#FFEBA2"/>
  <rect id="31f2eb32d10146aca4a458fdc7e227d2-ao-9" height="17.44186" width="37.2093" y="186.4419" x="246.32562" stroke="#2D2D2D" fill="#FFEBA2"/>
  
  <rect id="31f2eb32d10146aca4a458fdc7e227d2-ao-11" height="161.62791" width="81.39535" y="246.90702" x="104.46515" stroke="#2D2D2D" fill="#FFEBA2"/>
  <rect id="31f2eb32d10146aca4a458fdc7e227d2-ao-12" height="23.25581" width="52.32558" y="543.41865" x="474.2326" stroke="#2D2D2D" fill="#FFEBA2"/>
  <rect id="31f2eb32d10146aca4a458fdc7e227d2-ao-13" height="20.93023" width="77.90698" y="580.62796" x="478.88376" stroke="#2D2D2D" fill="#FFEBA2"/>
  <rect id="31f2eb32d10146aca4a458fdc7e227d2-ao-14" height="26.74419" width="48.83721" y="621.32563" x="476.55818" stroke="#2D2D2D" fill="#FFEBA2"/>
  <rect id="31f2eb32d10146aca4a458fdc7e227d2-ao-15" height="20.93023" width="52.32558" y="672.48843" x="474.2326" stroke="#2D2D2D" fill="#FFEBA2"/>
  <rect id="31f2eb32d10146aca4a458fdc7e227d2-ao-16" height="16.27907" width="46.51163" y="701.55819" x="475.39539" stroke="#2D2D2D" fill="#FFEBA2"/>
  <rect id="31f2eb32d10146aca4a458fdc7e227d2-ao-17" height="24.41861" width="63.95349" y="721.32564" x="473.06981" stroke="#2D2D2D" fill="#FFEBA2"/>
  <rect id="31f2eb32d10146aca4a458fdc7e227d2-ao-18" height="67.44186" width="91.86047" y="752.72099" x="495.16283" stroke="#2D2D2D" fill="#FFEBA2"/>
  <rect id="31f2eb32d10146aca4a458fdc7e227d2-ao-19" height="76.74419" width="106.97675" y="681.79075" x="103.30235" stroke="#2D2D2D" fill="#FFEBA2"/>
  <rect id="31f2eb32d10146aca4a458fdc7e227d2-ao-20" height="53.48837" width="109.30233" y="871.32564" x="102.13956" stroke="#2D2D2D" fill="#FFEBA2"/>
 </g>
</svg>