<svg xmlns="http://www.w3.org/2000/svg" width="687" height="331">
 <!-- Created with Image Occlusion Enhanced -->
 <g>
  <title>Labels</title>
 </g>
 <g>
  <title>Masks</title>
  <rect id="3230e0d9015049a9afaab89cf3f16bf2-ao-1" height="21.9917" width="76.76348" y="55.72198" x="121.71367" stroke="#2D2D2D" fill="#FFEBA2"/>
  <rect id="3230e0d9015049a9afaab89cf3f16bf2-ao-2" height="20.74689" width="44.39834" y="38.70953" x="186.8589" stroke="#2D2D2D" fill="#FFEBA2"/>
  <rect id="3230e0d9015049a9afaab89cf3f16bf2-ao-3" height="18.25726" width="95.02074" y="17.13277" x="200.55184" stroke="#2D2D2D" fill="#FFEBA2"/>
  <rect id="3230e0d9015049a9afaab89cf3f16bf2-ao-4" height="19.08714" width="62.6556" y="16.30289" x="308.02072" stroke="#2D2D2D" fill="#FFEBA2"/>
  <rect id="3230e0d9015049a9afaab89cf3f16bf2-ao-5" height="17.84232" width="55.18672" y="36.63484" x="329.18255" stroke="#2D2D2D" fill="#FFEBA2"/>
  <rect id="3230e0d9015049a9afaab89cf3f16bf2-ao-6" height="15.3527" width="76.34855" y="66.51036" x="360.30288" stroke="#2D2D2D" fill="#FFEBA2"/>
  <rect id="3230e0d9015049a9afaab89cf3f16bf2-ao-7" height="22.40664" width="91.70124" y="80.20331" x="437.4813" stroke="#2D2D2D" fill="#FFEBA2"/>
  
  <rect id="3230e0d9015049a9afaab89cf3f16bf2-ao-9" height="23.65145" width="74.27386" y="160.28629" x="605.53109" stroke="#2D2D2D" fill="#FFEBA2"/>
  <rect id="3230e0d9015049a9afaab89cf3f16bf2-ao-10" height="28.6307" width="58.92116" y="276.05393" x="583.95432" stroke="#2D2D2D" fill="#FFEBA2"/>
  <rect id="3230e0d9015049a9afaab89cf3f16bf2-ao-11" height="17.84232" width="55.18672" y="267.34023" x="525.86304" stroke="#2D2D2D" fill="#FFEBA2"/>
  <rect id="3230e0d9015049a9afaab89cf3f16bf2-ao-12" height="26.14108" width="65.14523" y="281.03318" x="478.97507" stroke="#2D2D2D" fill="#FFEBA2"/>
  <rect id="3230e0d9015049a9afaab89cf3f16bf2-ao-13" height="26.97095" width="51.86722" y="289.74687" x="383.95433" stroke="#2D2D2D" fill="#FFEBA2"/>
  <rect id="3230e0d9015049a9afaab89cf3f16bf2-ao-14" height="29.04564" width="34.43983" y="291.40662" x="347.43981" stroke="#2D2D2D" fill="#FFEBA2"/>
  <rect id="3230e0d9015049a9afaab89cf3f16bf2-ao-15" height="17.42739" width="32.36514" y="305.09957" x="311.75516" stroke="#2D2D2D" fill="#FFEBA2"/>
  <rect id="3230e0d9015049a9afaab89cf3f16bf2-ao-16" height="18.6722" width="41.90871" y="284.76762" x="291.42321" stroke="#2D2D2D" fill="#FFEBA2"/>
  <rect id="3230e0d9015049a9afaab89cf3f16bf2-ao-17" height="14.93776" width="90.45643" y="304.68463" x="210.51035" stroke="#2D2D2D" fill="#FFEBA2"/>
  <rect id="3230e0d9015049a9afaab89cf3f16bf2-ao-18" height="28.6307" width="86.72199" y="275.63899" x="166.52695" stroke="#2D2D2D" fill="#FFEBA2"/>
  <rect id="3230e0d9015049a9afaab89cf3f16bf2-ao-19" height="23.65145" width="51.03734" y="243.27384" x="144.95019" stroke="#2D2D2D" fill="#FFEBA2"/>
  <rect id="3230e0d9015049a9afaab89cf3f16bf2-ao-20" height="17.42739" width="75.10373" y="167.75517" x="43.29044" stroke="#2D2D2D" fill="#FFEBA2"/>
  <rect id="3230e0d9015049a9afaab89cf3f16bf2-ao-21" height="25.72614" width="88.38174" y="128.33609" x="51.17425" stroke="#2D2D2D" fill="#FFEBA2"/>
  <rect id="3230e0d9015049a9afaab89cf3f16bf2-ao-22" height="15.76763" width="45.22821" y="107.17426" x="95.98753" stroke="#2D2D2D" fill="#FFEBA2"/>
  <rect id="3230e0d9015049a9afaab89cf3f16bf2-ao-23" height="16.59751" width="51.45228" y="86.84231" x="119.63898" stroke="#2D2D2D" fill="#FFEBA2"/>
 </g>
</svg>