<svg xmlns="http://www.w3.org/2000/svg" width="915" height="507">
 <!-- Created with Image Occlusion Enhanced -->
 <g>
  <title>Labels</title>
 </g>
 <g>
  <title>Masks</title>
  <rect id="416c7eb9e1dc478d897ecfba3766331c-oa-1" height="21.51899" width="435.44305" y="409.4557" x="213.48105" stroke="#2D2D2D" fill="#FFEBA2"/>
  <rect id="416c7eb9e1dc478d897ecfba3766331c-oa-2" height="49.36709" width="272.15191" y="442.3671" x="24.24054" stroke="#2D2D2D" fill="#FFEBA2"/>
  <rect id="416c7eb9e1dc478d897ecfba3766331c-oa-3" height="50.63291" width="129.11393" y="141.73418" x="1.45573" stroke="#2D2D2D" fill="#FFEBA2"/>
  <rect id="416c7eb9e1dc478d897ecfba3766331c-oa-4" height="36.70886" width="153.16456" y="216.41772" x="117.91143" stroke="#2D2D2D" fill="#FFEBA2"/>
  <rect id="416c7eb9e1dc478d897ecfba3766331c-oa-5" height="20.25317" width="239.87343" y="382.87342" x="288.79751" stroke="#2D2D2D" fill="#FFEBA2"/>
  <rect id="416c7eb9e1dc478d897ecfba3766331c-oa-6" height="18.35443" width="217.72153" y="358.82279" x="397.02536" stroke="#2D2D2D" fill="#FFEBA2"/>
  <rect id="416c7eb9e1dc478d897ecfba3766331c-oa-7" height="44.3038" width="135.44304" y="145.53164" x="230.56966" stroke="#2D2D2D" fill="#FFEBA2"/>
  <rect id="416c7eb9e1dc478d897ecfba3766331c-oa-8" height="32.91139" width="148.73418" y="211.98734" x="347.65827" stroke="#2D2D2D" fill="#FFEBA2"/>
  <rect id="416c7eb9e1dc478d897ecfba3766331c-oa-9" height="27.21519" width="393.03799" y="336.03798" x="472.34182" stroke="#2D2D2D" fill="#FFEBA2"/>
  <rect id="416c7eb9e1dc478d897ecfba3766331c-oa-10" height="13.92405" width="284.81014" y="319.58228" x="572.97473" stroke="#2D2D2D" fill="#FFEBA2"/>
  <rect id="416c7eb9e1dc478d897ecfba3766331c-oa-11" height="25.94937" width="242.40507" y="291.73418" x="628.03803" stroke="#2D2D2D" fill="#FFEBA2"/>
  <rect id="416c7eb9e1dc478d897ecfba3766331c-oa-12" height="29.74684" width="178.48102" y="260.08861" x="710.94942" stroke="#2D2D2D" fill="#FFEBA2"/>
  <rect id="416c7eb9e1dc478d897ecfba3766331c-oa-13" height="44.3038" width="146.83545" y="106.92405" x="416.0127" stroke="#2D2D2D" fill="#FFEBA2"/>
  <rect id="416c7eb9e1dc478d897ecfba3766331c-oa-14" height="33.5443" width="125.31646" y="196.79747" x="516.64562" stroke="#2D2D2D" fill="#FFEBA2"/>
  <rect id="416c7eb9e1dc478d897ecfba3766331c-oa-15" height="37.34177" width="109.49367" y="44.89873" x="550.82283" stroke="#2D2D2D" fill="#FFEBA2"/>
  <rect id="416c7eb9e1dc478d897ecfba3766331c-oa-16" height="45.56962" width="118.98735" y="96.16455" x="633.10132" stroke="#2D2D2D" fill="#FFEBA2"/>
  <rect id="416c7eb9e1dc478d897ecfba3766331c-oa-17" height="37.97468" width="139.24051" y="35.40506" x="681.20259" stroke="#2D2D2D" fill="#FFEBA2"/>
  <rect id="416c7eb9e1dc478d897ecfba3766331c-oa-18" height="31.01266" width="85.44304" y="193" x="828.67094" stroke="#2D2D2D" fill="#FFEBA2"/>
 </g>
</svg>