<svg xmlns="http://www.w3.org/2000/svg" width="859" height="515">
 <!-- Created with Image Occlusion Enhanced -->
 <g>
  <title>Labels</title>
 </g>
 <g>
  <title>Masks</title>
  <rect id="65ba9f5d698c4667a9b380125696236c-ao-1" height="25.16129" width="104.51613" y="8.87096" x="252.61294" stroke="#2D2D2D" fill="#FFEBA2"/>
  <rect id="65ba9f5d698c4667a9b380125696236c-ao-2" height="31.6129" width="125.80646" y="39.8387" x="332.61295" stroke="#2D2D2D" fill="#FFEBA2"/>
  <rect id="65ba9f5d698c4667a9b380125696236c-ao-3" height="21.29032" width="132.90323" y="60.48386" x="469.38715" stroke="#2D2D2D" fill="#FFEBA2"/>
  <rect id="65ba9f5d698c4667a9b380125696236c-ao-4" height="14.19355" width="96.7742" y="86.29032" x="501.64521" stroke="#2D2D2D" fill="#FFEBA2"/>
  <rect id="65ba9f5d698c4667a9b380125696236c-ao-5" height="15.48387" width="127.09678" y="108.87096" x="553.90328" stroke="#2D2D2D" fill="#FFEBA2"/>
  <rect id="65ba9f5d698c4667a9b380125696236c-ao-6" height="25.80645" width="152.90323" y="50.16128" x="638.41941" stroke="#2D2D2D" fill="#FFEBA2"/>
  <rect id="65ba9f5d698c4667a9b380125696236c-ao-7" height="23.22581" width="69.03226" y="131.45161" x="715.83877" stroke="#2D2D2D" fill="#FFEBA2"/>
  <rect id="65ba9f5d698c4667a9b380125696236c-ao-8" height="29.67742" width="83.87097" y="273.3871" x="724.22586" stroke="#2D2D2D" fill="#FFEBA2"/>
  <rect id="65ba9f5d698c4667a9b380125696236c-ao-9" height="24.51613" width="112.25807" y="470.1613" x="737.12909" stroke="#2D2D2D" fill="#FFEBA2"/>
  <rect id="65ba9f5d698c4667a9b380125696236c-ao-10" height="37.41936" width="99.35484" y="468.87098" x="627.45167" stroke="#2D2D2D" fill="#FFEBA2"/>
  <rect id="65ba9f5d698c4667a9b380125696236c-ao-11" height="29.03226" width="71.61291" y="466.93549" x="553.25812" stroke="#2D2D2D" fill="#FFEBA2"/>
  <rect id="65ba9f5d698c4667a9b380125696236c-ao-12" height="23.87097" width="77.41936" y="413.3871" x="484.87102" stroke="#2D2D2D" fill="#FFEBA2"/>
  
  <rect id="65ba9f5d698c4667a9b380125696236c-ao-14" height="38.70968" width="101.29033" y="467.58065" x="317.12908" stroke="#2D2D2D" fill="#FFEBA2"/>
  <rect id="65ba9f5d698c4667a9b380125696236c-ao-15" height="37.41936" width="76.7742" y="468.87098" x="223.58068" stroke="#2D2D2D" fill="#FFEBA2"/>
  <rect id="65ba9f5d698c4667a9b380125696236c-ao-16" height="21.93548" width="93.54839" y="426.29033" x="34.54842" stroke="#2D2D2D" fill="#FFEBA2"/>
  <rect id="65ba9f5d698c4667a9b380125696236c-ao-17" height="36.77419" width="76.7742" y="377.90323" x="21.64519" stroke="#2D2D2D" fill="#FFEBA2"/>
  <rect id="65ba9f5d698c4667a9b380125696236c-ao-18" height="33.54839" width="80.64516" y="448.87097" x="148.09681" stroke="#2D2D2D" fill="#FFEBA2"/>
 </g>
</svg>