<svg xmlns="http://www.w3.org/2000/svg" width="645" height="372">
 <!-- Created with Image Occlusion Enhanced -->
 <g>
  <title>Labels</title>
 </g>
 <g>
  <title>Masks</title>
  <rect id="770b21c1886e436680eb1b0aa849d05d-ao-1" height="22.85714" width="123.42857" y="58.28571" x="-0.42857" stroke="#2D2D2D" fill="#FFEBA2"/>
  
  <rect id="770b21c1886e436680eb1b0aa849d05d-ao-3" height="23.42857" width="189.71429" y="57.71429" x="263.57143" stroke="#2D2D2D" fill="#FFEBA2"/>
  <rect id="770b21c1886e436680eb1b0aa849d05d-ao-4" height="24" width="186.28571" y="57.71429" x="457.28571" stroke="#2D2D2D" fill="#FFEBA2"/>
  <rect id="770b21c1886e436680eb1b0aa849d05d-ao-5" height="48.57143" width="121.14286" y="2.28571" x="1.28571" stroke="#2D2D2D" fill="#FFEBA2"/>
  <rect id="770b21c1886e436680eb1b0aa849d05d-ao-6" height="37.71429" width="117.71429" y="86.85714" x="3" stroke="#2D2D2D" fill="#FFEBA2"/>
  <rect id="770b21c1886e436680eb1b0aa849d05d-ao-7" height="19.42857" width="102.28571" y="87.42857" x="131" stroke="#2D2D2D" fill="#FFEBA2"/>
  <rect id="770b21c1886e436680eb1b0aa849d05d-ao-8" height="16.57143" width="98.85714" y="110.28571" x="131" stroke="#2D2D2D" fill="#FFEBA2"/>
  <rect id="770b21c1886e436680eb1b0aa849d05d-ao-9" height="38.28571" width="116" y="175.42857" x="129.85714" stroke="#2D2D2D" fill="#FFEBA2"/>
  <rect id="770b21c1886e436680eb1b0aa849d05d-ao-10" height="34.85714" width="112.57143" y="110.28571" x="269.85714" stroke="#2D2D2D" fill="#FFEBA2"/>
  <rect id="770b21c1886e436680eb1b0aa849d05d-ao-11" height="30.85714" width="85.71429" y="191.42857" x="268.14286" stroke="#2D2D2D" fill="#FFEBA2"/>
  <rect id="770b21c1886e436680eb1b0aa849d05d-ao-12" height="17.14286" width="104" y="153.14286" x="267.57143" stroke="#2D2D2D" fill="#FFEBA2"/>
  <rect id="770b21c1886e436680eb1b0aa849d05d-ao-13" height="24" width="80" y="265.14286" x="268.14286" stroke="#2D2D2D" fill="#FFEBA2"/>
  <rect id="770b21c1886e436680eb1b0aa849d05d-ao-14" height="44.57143" width="96" y="302.85714" x="266.42857" stroke="#2D2D2D" fill="#FFEBA2"/>
  <rect id="770b21c1886e436680eb1b0aa849d05d-ao-15" height="16" width="69.71429" y="176.57143" x="521.85714" stroke="#2D2D2D" fill="#FFEBA2"/>
  <rect id="770b21c1886e436680eb1b0aa849d05d-ao-16" height="24" width="121.14286" y="207.42857" x="472.14286" stroke="#2D2D2D" fill="#FFEBA2"/>
  <rect id="770b21c1886e436680eb1b0aa849d05d-ao-17" height="19.42857" width="148.57143" y="86.28571" x="460.14286" stroke="#2D2D2D" fill="#FFEBA2"/>
  <rect id="770b21c1886e436680eb1b0aa849d05d-ao-18" height="23.42857" width="138.28571" y="149.71429" x="459.57143" stroke="#2D2D2D" fill="#FFEBA2"/>
  <rect id="770b21c1886e436680eb1b0aa849d05d-ao-19" height="19.42857" width="116.57143" y="152.57143" x="128.71429" stroke="#2D2D2D" fill="#FFEBA2"/>
  <rect id="770b21c1886e436680eb1b0aa849d05d-ao-20" height="20" width="120.57143" y="85.14286" x="264.71429" stroke="#2D2D2D" fill="#FFEBA2"/>
  <rect id="770b21c1886e436680eb1b0aa849d05d-ao-21" height="14.85714" width="95.42857" y="173.14286" x="267.57143" stroke="#2D2D2D" fill="#FFEBA2"/>
  <rect id="770b21c1886e436680eb1b0aa849d05d-ao-22" height="17.14286" width="100" y="248.57143" x="268.14286" stroke="#2D2D2D" fill="#FFEBA2"/>
 </g>
</svg>