<svg xmlns="http://www.w3.org/2000/svg" width="625" height="415">
 <!-- Created with Image Occlusion Enhanced -->
 <g>
  <title>Labels</title>
 </g>
 <g>
  <title>Masks</title>
  <rect id="a022482a65e344e498524530061f8ca9-ao-1" height="21.24352" width="83.93782" y="42.51294" x="70.85492" stroke="#2D2D2D" fill="#FFEBA2"/>
  
  <rect id="a022482a65e344e498524530061f8ca9-ao-3" height="18.13472" width="53.36788" y="134.22279" x="77.59067" stroke="#2D2D2D" fill="#FFEBA2"/>
  <rect id="a022482a65e344e498524530061f8ca9-ao-4" height="14.50777" width="73.57513" y="158.05699" x="77.59067" stroke="#2D2D2D" fill="#FFEBA2"/>
  <rect id="a022482a65e344e498524530061f8ca9-ao-5" height="16.06218" width="68.91192" y="178.26424" x="79.66321" stroke="#2D2D2D" fill="#FFEBA2"/>
  <rect id="a022482a65e344e498524530061f8ca9-ao-6" height="19.68912" width="83.93782" y="215.0518" x="76.03627" stroke="#2D2D2D" fill="#FFEBA2"/>
  <rect id="a022482a65e344e498524530061f8ca9-ao-7" height="18.13472" width="61.65803" y="251.83937" x="70.33679" stroke="#2D2D2D" fill="#FFEBA2"/>
  <rect id="a022482a65e344e498524530061f8ca9-ao-8" height="18.13472" width="92.74611" y="289.6632" x="77.59067" stroke="#2D2D2D" fill="#FFEBA2"/>
  <rect id="a022482a65e344e498524530061f8ca9-ao-9" height="15.54404" width="106.21762" y="312.46113" x="78.62694" stroke="#2D2D2D" fill="#FFEBA2"/>
  <rect id="a022482a65e344e498524530061f8ca9-ao-10" height="16.58031" width="45.59585" y="361.68393" x="73.4456" stroke="#2D2D2D" fill="#FFEBA2"/>
  <rect id="a022482a65e344e498524530061f8ca9-ao-11" height="46.11399" width="38.34197" y="283.44559" x="27.33161" stroke="#2D2D2D" fill="#FFEBA2"/>
  <rect id="a022482a65e344e498524530061f8ca9-ao-12" height="22.27979" width="98.4456" y="42.51294" x="505.56995" stroke="#2D2D2D" fill="#FFEBA2"/>
  <rect id="a022482a65e344e498524530061f8ca9-ao-13" height="39.89637" width="19.68912" y="143.03108" x="44.43005" stroke="#2D2D2D" fill="#FFEBA2"/>
  <rect id="a022482a65e344e498524530061f8ca9-ao-14" height="18.65285" width="70.46632" y="87.07253" x="531.47668" stroke="#2D2D2D" fill="#FFEBA2"/>
  <rect id="a022482a65e344e498524530061f8ca9-ao-15" height="15.54404" width="52.84974" y="161.68393" x="549.09326" stroke="#2D2D2D" fill="#FFEBA2"/>
  <rect id="a022482a65e344e498524530061f8ca9-ao-16" height="21.24352" width="81.86528" y="192.77201" x="516.96891" stroke="#2D2D2D" fill="#FFEBA2"/>
  <rect id="a022482a65e344e498524530061f8ca9-ao-17" height="13.4715" width="38.34197" y="229.55958" x="564.63731" stroke="#2D2D2D" fill="#FFEBA2"/>
  <rect id="a022482a65e344e498524530061f8ca9-ao-18" height="19.17098" width="98.96373" y="257.02072" x="499.87047" stroke="#2D2D2D" fill="#FFEBA2"/>
  <rect id="a022482a65e344e498524530061f8ca9-ao-19" height="16.58031" width="51.81347" y="294.84455" x="550.64767" stroke="#2D2D2D" fill="#FFEBA2"/>
  <rect id="a022482a65e344e498524530061f8ca9-ao-20" height="16.06218" width="106.21762" y="329.04144" x="495.72539" stroke="#2D2D2D" fill="#FFEBA2"/>
  <rect id="a022482a65e344e498524530061f8ca9-ao-21" height="15.54404" width="75.12953" y="363.23833" x="526.81347" stroke="#2D2D2D" fill="#FFEBA2"/>
 </g>
</svg>