<svg xmlns="http://www.w3.org/2000/svg" width="679" height="426">
 <!-- Created with Image Occlusion Enhanced -->
 <g>
  <title>Labels</title>
 </g>
 <g>
  <title>Masks</title>
  <rect id="a77c27a3e2f541bba666b65cee63de5b-ao-1" height="36.74699" width="216.26507" y="39.06026" x="227.02408" stroke="#2D2D2D" fill="#FFEBA2"/>
  <rect id="a77c27a3e2f541bba666b65cee63de5b-ao-2" height="36.74699" width="216.86748" y="77.61448" x="227.02408" stroke="#2D2D2D" fill="#FF7E7E" class="qshape"/>
  <rect id="a77c27a3e2f541bba666b65cee63de5b-ao-3" height="45.78313" width="216.86748" y="118.57833" x="227.02408" stroke="#2D2D2D" fill="#FFEBA2"/>
  <rect id="a77c27a3e2f541bba666b65cee63de5b-ao-4" height="36.14458" width="215.66266" y="166.77111" x="227.62649" stroke="#2D2D2D" fill="#FFEBA2"/>
  <rect id="a77c27a3e2f541bba666b65cee63de5b-ao-5" height="89.15663" width="213.85543" y="208.33737" x="228.83131" stroke="#2D2D2D" fill="#FFEBA2"/>
  <rect id="a77c27a3e2f541bba666b65cee63de5b-ao-6" height="36.74699" width="215.66266" y="299.90364" x="228.2289" stroke="#2D2D2D" fill="#FFEBA2"/>
  <rect id="a77c27a3e2f541bba666b65cee63de5b-ao-7" height="36.14458" width="215.66266" y="339.66268" x="227.62649" stroke="#2D2D2D" fill="#FFEBA2"/>
  <rect id="a77c27a3e2f541bba666b65cee63de5b-ao-8" height="41.56627" width="215.66266" y="380.02413" x="227.62649" stroke="#2D2D2D" fill="#FFEBA2"/>
  <rect id="a77c27a3e2f541bba666b65cee63de5b-ao-9" height="30.72289" width="228.91567" y="40.86749" x="447.50601" stroke="#2D2D2D" fill="#FFEBA2"/>
  <rect id="a77c27a3e2f541bba666b65cee63de5b-ao-10" height="36.74699" width="228.91567" y="78.21689" x="446.3012" stroke="#2D2D2D" fill="#FFEBA2"/>
  <rect id="a77c27a3e2f541bba666b65cee63de5b-ao-11" height="43.3735" width="229.51808" y="119.18074" x="446.90361" stroke="#2D2D2D" fill="#FFEBA2"/>
  <rect id="a77c27a3e2f541bba666b65cee63de5b-ao-12" height="36.14458" width="228.91567" y="167.97593" x="446.90361" stroke="#2D2D2D" fill="#FFEBA2"/>
  <rect id="a77c27a3e2f541bba666b65cee63de5b-ao-13" height="87.3494" width="228.91567" y="208.33737" x="448.10842" stroke="#2D2D2D" fill="#FFEBA2"/>
  <rect id="a77c27a3e2f541bba666b65cee63de5b-ao-14" height="36.74699" width="229.51808" y="300.50605" x="447.50601" stroke="#2D2D2D" fill="#FFEBA2"/>
  <rect id="a77c27a3e2f541bba666b65cee63de5b-ao-15" height="34.93976" width="230.12049" y="340.26509" x="447.50601" stroke="#2D2D2D" fill="#FFEBA2"/>
  <rect id="a77c27a3e2f541bba666b65cee63de5b-ao-16" height="43.97591" width="228.31326" y="380.62654" x="448.71083" stroke="#2D2D2D" fill="#FFEBA2"/>
 </g>
</svg>