<svg xmlns="http://www.w3.org/2000/svg" width="920" height="511.00000000000006">
 <!-- Created with Image Occlusion Enhanced -->
 <g>
  <title>Labels</title>
 </g>
 <g>
  <title>Masks</title>
  <rect id="ac45e9f98c0d4a46a8569336de34c148-ao-1" height="39.10257" width="511.53848" y="2.46156" x="0.51285" stroke="#2D2D2D" fill="#FFEBA2"/>
  <rect id="ac45e9f98c0d4a46a8569336de34c148-ao-2" height="45.51282" width="82.69231" y="251.17951" x="306.28209" stroke="#2D2D2D" fill="#FFEBA2"/>
  <rect id="ac45e9f98c0d4a46a8569336de34c148-ao-3" height="44.23077" width="106.41026" y="316.56413" x="457.56415" stroke="#2D2D2D" fill="#FFEBA2"/>
  <rect id="ac45e9f98c0d4a46a8569336de34c148-ao-4" height="26.28205" width="64.10257" y="374.25644" x="565.89749" stroke="#2D2D2D" fill="#FFEBA2"/>
  <rect id="ac45e9f98c0d4a46a8569336de34c148-ao-5" height="19.8718" width="58.33334" y="401.82054" x="421.66671" stroke="#2D2D2D" fill="#FFEBA2"/>
  <rect id="ac45e9f98c0d4a46a8569336de34c148-ao-6" height="19.23077" width="82.05128" y="447.97439" x="398.58979" stroke="#2D2D2D" fill="#FFEBA2"/>
  <rect id="ac45e9f98c0d4a46a8569336de34c148-ao-7" height="51.28205" width="133.97436" y="453.74362" x="548.58979" stroke="#2D2D2D" fill="#FFEBA2"/>
  <rect id="ac45e9f98c0d4a46a8569336de34c148-ao-8" height="29.48718" width="92.94872" y="346.69234" x="727.43595" stroke="#2D2D2D" fill="#FFEBA2"/>
  <rect id="ac45e9f98c0d4a46a8569336de34c148-ao-9" height="58.97436" width="142.94872" y="406.30772" x="769.10262" stroke="#2D2D2D" fill="#FFEBA2"/>
  <rect id="ac45e9f98c0d4a46a8569336de34c148-ao-10" height="15.38462" width="52.5641" y="233.87182" x="744.74365" stroke="#2D2D2D" fill="#FF7E7E" class="qshape"/>
  <rect id="ac45e9f98c0d4a46a8569336de34c148-ao-11" height="37.82051" width="107.69231" y="248.61541" x="574.87185" stroke="#2D2D2D" fill="#FFEBA2"/>
  <rect id="ac45e9f98c0d4a46a8569336de34c148-ao-12" height="36.53846" width="197.4359" y="61.43592" x="646.66672" stroke="#2D2D2D" fill="#FFEBA2"/>
  <rect id="ac45e9f98c0d4a46a8569336de34c148-ao-13" height="82.05128" width="119.8718" y="109.51284" x="793.4616" stroke="#2D2D2D" fill="#FFEBA2"/>
  <rect id="ac45e9f98c0d4a46a8569336de34c148-ao-14" height="42.94872" width="108.97436" y="139.00002" x="336.4103" stroke="#2D2D2D" fill="#FFEBA2"/>
  <rect id="ac45e9f98c0d4a46a8569336de34c148-ao-15" height="20.51282" width="72.4359" y="197.97438" x="462.69235" stroke="#2D2D2D" fill="#FFEBA2"/>
  <rect id="ac45e9f98c0d4a46a8569336de34c148-ao-16" height="64.10257" width="140.38462" y="62.71797" x="410.76928" stroke="#2D2D2D" fill="#FFEBA2"/>
 </g>
</svg>