<svg xmlns="http://www.w3.org/2000/svg" width="594" height="355">
 <!-- Created with Image Occlusion Enhanced -->
 <g>
  <title>Labels</title>
 </g>
 <g>
  <title>Masks</title>
  <rect id="b42aaaa9905a4518befca25780bd57f7-ao-1" height="19.11111" width="98.66667" y="61.88889" x="46" stroke="#2D2D2D" fill="#FFEBA2"/>
  <rect id="b42aaaa9905a4518befca25780bd57f7-ao-2" height="22.66667" width="95.55556" y="39.22222" x="386" stroke="#2D2D2D" fill="#FFEBA2"/>
  <rect id="b42aaaa9905a4518befca25780bd57f7-ao-3" height="18.22222" width="88.88889" y="80.11111" x="442.44444" stroke="#2D2D2D" fill="#FFEBA2"/>
  <rect id="b42aaaa9905a4518befca25780bd57f7-ao-4" height="22.22222" width="108.44444" y="101.88889" x="443.77778" stroke="#2D2D2D" fill="#FFEBA2"/>
  <rect id="b42aaaa9905a4518befca25780bd57f7-ao-5" height="17.33333" width="33.33333" y="136.55556" x="427.77778" stroke="#2D2D2D" fill="#FFEBA2"/>
  <rect id="b42aaaa9905a4518befca25780bd57f7-ao-6" height="13.77778" width="46.66667" y="150.77778" x="523.77778" stroke="#2D2D2D" fill="#FFEBA2"/>
  <rect id="b42aaaa9905a4518befca25780bd57f7-ao-7" height="22.66667" width="93.77778" y="258.33333" x="474.44444" stroke="#2D2D2D" fill="#FFEBA2"/>
  <rect id="b42aaaa9905a4518befca25780bd57f7-ao-8" height="20" width="88" y="316.55556" x="454.44444" stroke="#2D2D2D" fill="#FFEBA2"/>
  <rect id="b42aaaa9905a4518befca25780bd57f7-ao-9" height="35.55556" width="56.88889" y="237.44444" x="377.55556" stroke="#2D2D2D" fill="#FFEBA2"/>
  <rect id="b42aaaa9905a4518befca25780bd57f7-ao-10" height="18.22222" width="35.11111" y="269.44444" x="323.77778" stroke="#2D2D2D" fill="#FFEBA2"/>
  <rect id="b42aaaa9905a4518befca25780bd57f7-ao-11" height="17.33333" width="47.11111" y="328.55556" x="317.11111" stroke="#2D2D2D" fill="#FFEBA2"/>
  <rect id="b42aaaa9905a4518befca25780bd57f7-ao-12" height="15.55556" width="44.88889" y="280.55556" x="249.55556" stroke="#2D2D2D" fill="#FFEBA2"/>
  <rect id="b42aaaa9905a4518befca25780bd57f7-ao-13" height="17.33333" width="70.66667" y="263.66667" x="185.55556" stroke="#2D2D2D" fill="#FFEBA2"/>
  <rect id="b42aaaa9905a4518befca25780bd57f7-ao-14" height="16.44444" width="36.88889" y="245" x="184.22222" stroke="#2D2D2D" fill="#FFEBA2"/>
  <rect id="b42aaaa9905a4518befca25780bd57f7-ao-15" height="17.33333" width="51.55556" y="197" x="45.11111" stroke="#2D2D2D" fill="#FFEBA2"/>
  <rect id="b42aaaa9905a4518befca25780bd57f7-ao-16" height="15.11111" width="56.44444" y="124.55556" x="48.22222" stroke="#2D2D2D" fill="#FFEBA2"/>
  <rect id="b42aaaa9905a4518befca25780bd57f7-ao-17" height="16.44444" width="49.77778" y="105.44444" x="147.77778" stroke="#2D2D2D" fill="#FFEBA2"/>
  <rect id="b42aaaa9905a4518befca25780bd57f7-ao-18" height="14.66667" width="67.55556" y="221.88889" x="44.22222" stroke="#2D2D2D" fill="#FFEBA2"/>
  <rect id="b42aaaa9905a4518befca25780bd57f7-ao-19" height="14.66667" width="63.55556" y="243.22222" x="45.11111" stroke="#2D2D2D" fill="#FFEBA2"/>
  <rect id="b42aaaa9905a4518befca25780bd57f7-ao-20" height="15.11111" width="62.22222" y="267.22222" x="59.33333" stroke="#2D2D2D" fill="#FFEBA2"/>
  <rect id="b42aaaa9905a4518befca25780bd57f7-ao-21" height="19.11111" width="43.55556" y="2.77778" x="123.77778" stroke="#2D2D2D" fill="#FFEBA2"/>
  <rect id="b42aaaa9905a4518befca25780bd57f7-ao-22" height="20" width="56.88889" y="2.77778" x="208.66667" stroke="#2D2D2D" fill="#FFEBA2"/>
  
 </g>
</svg>