<svg xmlns="http://www.w3.org/2000/svg" width="790" height="427">
 <!-- Created with Image Occlusion Enhanced -->
 <g>
  <title>Labels</title>
 </g>
 <g>
  <title>Masks</title>
  <rect id="c32826b6bede47c9bd041b6b73ff7613-ao-1" height="38.50267" width="65.7754" y="32.89305" x="295.56146" stroke="#2D2D2D" fill="#FFEBA2"/>
  <rect id="c32826b6bede47c9bd041b6b73ff7613-ao-2" height="33.68984" width="82.35294" y="29.6845" x="394.49194" stroke="#2D2D2D" fill="#FFEBA2"/>
  <rect id="c32826b6bede47c9bd041b6b73ff7613-ao-3" height="19.7861" width="85.02674" y="30.75402" x="545.82884" stroke="#2D2D2D" fill="#FFEBA2"/>
  <rect id="c32826b6bede47c9bd041b6b73ff7613-ao-4" height="23.52941" width="61.49733" y="76.20856" x="678.44916" stroke="#2D2D2D" fill="#FFEBA2"/>
  <rect id="c32826b6bede47c9bd041b6b73ff7613-ao-5" height="42.78075" width="105.88235" y="117.91979" x="674.70585" stroke="#2D2D2D" fill="#FFEBA2"/>
  <rect id="c32826b6bede47c9bd041b6b73ff7613-ao-6" height="39.57219" width="81.28342" y="183.69519" x="679.51868" stroke="#2D2D2D" fill="#FFEBA2"/>
  <rect id="c32826b6bede47c9bd041b6b73ff7613-ao-7" height="35.29412" width="72.19251" y="279.41712" x="670.42777" stroke="#2D2D2D" fill="#FFEBA2"/>
  <rect id="c32826b6bede47c9bd041b6b73ff7613-ao-8" height="42.24599" width="54.54546" y="276.20856" x="610.53472" stroke="#2D2D2D" fill="#FFEBA2"/>
  <rect id="c32826b6bede47c9bd041b6b73ff7613-ao-9" height="47.05882" width="94.11765" y="272.46525" x="512.67376" stroke="#2D2D2D" fill="#FFEBA2"/>
  <rect id="c32826b6bede47c9bd041b6b73ff7613-ao-10" height="22.99465" width="81.28342" y="324.33691" x="518.55611" stroke="#2D2D2D" fill="#FFEBA2"/>
  <rect id="c32826b6bede47c9bd041b6b73ff7613-ao-11" height="19.7861" width="75.93583" y="357.49199" x="519.09087" stroke="#2D2D2D" fill="#FFEBA2"/>
  <rect id="c32826b6bede47c9bd041b6b73ff7613-ao-12" height="36.36364" width="78.60963" y="370.32621" x="434.59889" stroke="#2D2D2D" fill="#FFEBA2"/>
  <rect id="c32826b6bede47c9bd041b6b73ff7613-ao-13" height="20.32086" width="64.70588" y="368.72193" x="364.01066" stroke="#2D2D2D" fill="#FF7E7E" class="qshape"/>
  <rect id="c32826b6bede47c9bd041b6b73ff7613-ao-14" height="37.96791" width="106.95187" y="368.18718" x="253.31547" stroke="#2D2D2D" fill="#FFEBA2"/>
  <rect id="c32826b6bede47c9bd041b6b73ff7613-ao-15" height="45.45455" width="94.65241" y="287.97327" x="267.75397" stroke="#2D2D2D" fill="#FFEBA2"/>
  <rect id="c32826b6bede47c9bd041b6b73ff7613-ao-16" height="24.59893" width="59.35829" y="247.33156" x="295.56146" stroke="#2D2D2D" fill="#FFEBA2"/>
  <rect id="c32826b6bede47c9bd041b6b73ff7613-ao-17" height="40.64171" width="101.60428" y="142.51872" x="258.1283" stroke="#2D2D2D" fill="#FFEBA2"/>
  <rect id="c32826b6bede47c9bd041b6b73ff7613-ao-18" height="40.10695" width="57.21925" y="87.97327" x="300.37429" stroke="#2D2D2D" fill="#FFEBA2"/>
 </g>
</svg>