<svg xmlns="http://www.w3.org/2000/svg" width="390" height="709">
 <!-- Created with Image Occlusion Enhanced -->
 <g>
  <title>Labels</title>
 </g>
 <g>
  <title>Masks</title>
  <rect id="dcadb0631dc94e2ab0218abac43a34d8-oa-1" height="42.47788" width="103.53983" y="53.83187" x="12.69908" stroke="#2D2D2D" fill="#FFEBA2"/>
  <rect id="dcadb0631dc94e2ab0218abac43a34d8-oa-2" height="46.0177" width="100.88496" y="51.17701" x="205.61944" stroke="#2D2D2D" fill="#FFEBA2"/>
  <rect id="dcadb0631dc94e2ab0218abac43a34d8-oa-3" height="34.51328" width="123.00885" y="115.77878" x="212.69909" stroke="#2D2D2D" fill="#FFEBA2"/>
  <rect id="dcadb0631dc94e2ab0218abac43a34d8-oa-4" height="36.28319" width="123.89381" y="112.23896" x="16.23891" stroke="#2D2D2D" fill="#FFEBA2"/>
  <rect id="dcadb0631dc94e2ab0218abac43a34d8-oa-5" height="38.93805" width="163.71682" y="172.41595" x="200.30971" stroke="#2D2D2D" fill="#FFEBA2"/>
  <rect id="dcadb0631dc94e2ab0218abac43a34d8-oa-6" height="33.62832" width="169.02655" y="224.62834" x="198.5398" stroke="#2D2D2D" fill="#FFEBA2"/>
  <rect id="dcadb0631dc94e2ab0218abac43a34d8-oa-7" height="62.83186" width="172.56638" y="268.87613" x="197.65484" stroke="#2D2D2D" fill="#FFEBA2"/>
  <rect id="dcadb0631dc94e2ab0218abac43a34d8-oa-8" height="22.12389" width="184.0708" y="342.32746" x="198.5398" stroke="#2D2D2D" fill="#FFEBA2"/>
  <rect id="dcadb0631dc94e2ab0218abac43a34d8-oa-9" height="113.27434" width="103.53983" y="361.79648" x="258.71679" stroke="#2D2D2D" fill="#FFEBA2"/>
  <rect id="dcadb0631dc94e2ab0218abac43a34d8-oa-10" height="57.52213" width="61.9469" y="436.13277" x="203.84953" stroke="#2D2D2D" fill="#FFEBA2"/>
  <rect id="dcadb0631dc94e2ab0218abac43a34d8-oa-11" height="52.21239" width="109.73452" y="495.4248" x="210.04422" stroke="#2D2D2D" fill="#FFEBA2"/>
  <rect id="dcadb0631dc94e2ab0218abac43a34d8-oa-12" height="51.32743" width="117.69912" y="551.17702" x="210.92918" stroke="#2D2D2D" fill="#FFEBA2"/>
  <rect id="dcadb0631dc94e2ab0218abac43a34d8-oa-13" height="60.17699" width="123.00885" y="609.5841" x="215.35396" stroke="#2D2D2D" fill="#FFEBA2"/>
  <rect id="dcadb0631dc94e2ab0218abac43a34d8-oa-14" height="29.20354" width="121.23894" y="676.84074" x="216.23891" stroke="#2D2D2D" fill="#FFEBA2"/>
  <rect id="dcadb0631dc94e2ab0218abac43a34d8-oa-15" height="23.89381" width="71.68142" y="680.38056" x="18.00882" stroke="#2D2D2D" fill="#FFEBA2"/>
  <rect id="dcadb0631dc94e2ab0218abac43a34d8-oa-16" height="28.31858" width="105.30974" y="621.08852" x="17.12386" stroke="#2D2D2D" fill="#FFEBA2"/>
  <rect id="dcadb0631dc94e2ab0218abac43a34d8-oa-17" height="25.66372" width="110.61947" y="567.99118" x="20.66369" stroke="#2D2D2D" fill="#FFEBA2"/>
  <rect id="dcadb0631dc94e2ab0218abac43a34d8-oa-18" height="30.97345" width="116.81416" y="508.69914" x="19.77873" stroke="#2D2D2D" fill="#FFEBA2"/>
  <rect id="dcadb0631dc94e2ab0218abac43a34d8-oa-19" height="25.66372" width="128.31859" y="457.37171" x="15.35395" stroke="#2D2D2D" fill="#FFEBA2"/>
  <rect id="dcadb0631dc94e2ab0218abac43a34d8-oa-20" height="33.62832" width="127.43363" y="392.76994" x="13.58404" stroke="#2D2D2D" fill="#FFEBA2"/>
  <rect id="dcadb0631dc94e2ab0218abac43a34d8-oa-21" height="30.97345" width="139.82301" y="335.24781" x="10.92917" stroke="#2D2D2D" fill="#FFEBA2"/>
  <rect id="dcadb0631dc94e2ab0218abac43a34d8-oa-22" height="30.97345" width="139.82301" y="280.38055" x="11.81413" stroke="#2D2D2D" fill="#FFEBA2"/>
  <rect id="dcadb0631dc94e2ab0218abac43a34d8-oa-23" height="42.47788" width="122.1239" y="221.08852" x="16.23891" stroke="#2D2D2D" fill="#FFEBA2"/>
  <rect id="dcadb0631dc94e2ab0218abac43a34d8-oa-24" height="45.13274" width="125.66372" y="160.91152" x="12.69908" stroke="#2D2D2D" fill="#FFEBA2"/>
 </g>
</svg>