<svg xmlns="http://www.w3.org/2000/svg" width="2079" height="1622">
 <!-- Created with Image Occlusion Enhanced -->
 <g>
  <title>Labels</title>
 </g>
 <g>
  <title>Masks</title>
  <rect id="dd5b0b4855094caea2577aef475f2f8e-ao-1" height="237.83784" width="418.91893" y="834.7567" x="53.43249" stroke="#2D2D2D" fill="#FFEBA2"/>
  <rect id="dd5b0b4855094caea2577aef475f2f8e-ao-2" height="197.2973" width="202.70271" y="829.35129" x="629.10818" stroke="#2D2D2D" fill="#FFEBA2"/>
  <rect id="dd5b0b4855094caea2577aef475f2f8e-ao-3" height="113.51352" width="227.02703" y="1153.67562" x="893.97305" stroke="#2D2D2D" fill="#FFEBA2"/>
  <rect id="dd5b0b4855094caea2577aef475f2f8e-ao-4" height="91.89189" width="216.21622" y="1183.40536" x="1510.18928" stroke="#2D2D2D" fill="#FFEBA2"/>
  <rect id="dd5b0b4855094caea2577aef475f2f8e-ao-5" height="108.10811" width="113.51352" y="988.81076" x="1826.4055" stroke="#2D2D2D" fill="#FFEBA2"/>
  <rect id="dd5b0b4855094caea2577aef475f2f8e-ao-6" height="116.21622" width="213.51352" y="705.02696" x="1712.89199" stroke="#2D2D2D" fill="#FFEBA2"/>
  <rect id="dd5b0b4855094caea2577aef475f2f8e-ao-7" height="113.51352" width="343.24325" y="207.72966" x="1688.56766" stroke="#2D2D2D" fill="#FFEBA2"/>
  <rect id="dd5b0b4855094caea2577aef475f2f8e-ao-8" height="251.35136" width="372.97298" y="323.94587" x="169.64871" stroke="#2D2D2D" fill="#FFEBA2"/>
  <rect id="dd5b0b4855094caea2577aef475f2f8e-ao-9" height="67.56757" width="202.70271" y="372.59452" x="661.54061" stroke="#2D2D2D" fill="#FFEBA2"/>
  
  <rect id="dd5b0b4855094caea2577aef475f2f8e-ao-10" height="72.97297" width="94.5946" y="542.8648" x="726.40548" stroke="#2D2D2D" fill="#FF7E7E" class="qshape"/>
  <rect id="dd5b0b4855094caea2577aef475f2f8e-ao-11" height="167.56757" width="281.08109" y="186.10803" x="648.0271" stroke="#2D2D2D" fill="#FFEBA2"/>
  <rect id="dd5b0b4855094caea2577aef475f2f8e-ao-12" height="108.10811" width="589.1892" y="223.94587" x="1077.75684" stroke="#2D2D2D" fill="#FFEBA2"/>
  <rect id="dd5b0b4855094caea2577aef475f2f8e-ao-13" height="170.27027" width="102.70271" y="421.24317" x="1085.86495" stroke="#2D2D2D" fill="#FFEBA2"/>
  <rect id="dd5b0b4855094caea2577aef475f2f8e-ao-14" height="164.86487" width="94.5946" y="540.1621" x="1326.40549" stroke="#2D2D2D" fill="#FFEBA2"/>
  <rect id="dd5b0b4855094caea2577aef475f2f8e-ao-15" height="191.8919" width="97.2973" y="659.08102" x="1572.35144" stroke="#2D2D2D" fill="#FFEBA2"/>
  <rect id="dd5b0b4855094caea2577aef475f2f8e-ao-16" height="45.94595" width="332.43244" y="169.89182" x="1153.43251" stroke="#2D2D2D" fill="#FFEBA2"/>
  <rect id="dd5b0b4855094caea2577aef475f2f8e-ao-17" height="145.94595" width="305.40541" y="1386.10806" x="1080.45954" stroke="#2D2D2D" fill="#FFEBA2"/>
 </g>
</svg>